<svg width="96" height="44" viewBox="0 0 96 44" fill="none" xmlns="http://www.w3.org/2000/svg">
<rect width="96" height="44" fill="white"/>
<path d="M26.333 21.582C26.333 20.9492 27.0455 20.4262 27.97 20.3434L28.2269 20.332L66.1057 20.332C67.1517 20.332 67.9997 20.8917 67.9997 21.582C67.9997 22.2149 67.2872 22.7378 66.3627 22.8206L66.1057 22.832L28.2269 22.832C27.181 22.832 26.333 22.2724 26.333 21.582Z" fill="#011632"/>
<path d="M56.618 12.3861C56.1288 11.899 56.1271 11.1076 56.6142 10.6184C57.057 10.1737 57.7514 10.1318 58.2415 10.4939L58.382 10.6146L68.4653 20.6546C68.9114 21.0987 68.952 21.7956 68.587 22.2857L68.4654 22.4261L58.3821 32.4677C57.8929 32.9549 57.1014 32.9532 56.6143 32.4641C56.1714 32.0194 56.1325 31.3249 56.4966 30.8363L56.6179 30.6963L65.8113 21.5399L56.618 12.3861Z" fill="#011632"/>
</svg>
