<svg width="96" height="44" viewBox="0 0 96 44" fill="none" xmlns="http://www.w3.org/2000/svg">
<rect x="96" y="44" width="96" height="44" transform="rotate(-180 96 44)" fill="white"/>
<path d="M69.667 22.418C69.667 23.0508 68.9545 23.5738 68.03 23.6566L67.7731 23.668L29.8943 23.668C28.8483 23.668 28.0003 23.1083 28.0003 22.418C28.0003 21.7851 28.7128 21.2621 29.6373 21.1794L29.8943 21.168L67.7731 21.168C68.819 21.168 69.667 21.7276 69.667 22.418Z" fill="#011632"/>
<path d="M39.382 31.6139C39.8712 32.101 39.8729 32.8924 39.3858 33.3816C38.943 33.8263 38.2486 33.8682 37.7585 33.5061L37.618 33.3854L27.5347 23.3454C27.0886 22.9013 27.048 22.2044 27.413 21.7143L27.5346 21.5739L37.6179 11.5323C38.1071 11.0451 38.8986 11.0468 39.3857 11.5359C39.8286 11.9806 39.8675 12.6751 39.5034 13.1637L39.3821 13.3037L30.1887 22.4601L39.382 31.6139Z" fill="#011632"/>
</svg>
