<svg width="171" height="5" viewBox="0 0 171 5" fill="none" xmlns="http://www.w3.org/2000/svg">
<path fill-rule="evenodd" clip-rule="evenodd" d="M3.93091 4.07052C7.55518 3.76527 17.0799 3.75001 42.936 3.71948C83.3112 3.67369 115.355 3.33793 124.261 2.84953C124.968 2.80374 68.3722 2.46797 62.5601 2.71217C53.4994 3.10899 10.2292 2.77322 1.52208 2.31535C-0.953029 2.19325 -0.024854 1.7659 1.58839 1.67433C4.10768 1.5217 10.8701 1.53697 29.4113 1.56749C42.4499 1.58276 146.183 1.23172 157.52 0.605963C163.885 0.25493 167.752 -0.0655794 169.52 0.0107327C171.001 0.0717816 171.023 0.25493 169.741 0.758587C168.879 1.09436 169.852 1.29277 170.47 1.38434C171.421 1.53697 171.023 2.05589 169.829 2.46797C168.216 3.03268 165.432 3.01742 166.758 2.45271C167.045 2.33061 167.111 2.02536 166.095 2.08641C163.133 2.26956 142.206 3.52107 136.526 3.73474C75.8859 6.05462 16.7042 4.3605 4.17398 4.92521C-0.267955 5.13888 1.7652 4.25367 3.93091 4.07052Z" fill="#25B4F8"/>
</svg>
