<svg width="500" height="10" viewBox="0 0 500 10" fill="none" xmlns="http://www.w3.org/2000/svg">
<path fill-rule="evenodd" clip-rule="evenodd" d="M12.1792 7.68698C22.7614 7.19356 50.5725 7.15606 126.069 7.07173C243.96 6.94304 337.523 6.36178 363.527 5.56805C365.592 5.49381 200.339 5.03421 183.368 5.43294C156.913 6.08035 30.5683 5.60246 5.14441 4.88174C-2.08269 4.68977 0.627145 4.00467 5.33754 3.85592C12.6935 3.60824 32.4388 3.62339 86.5771 3.64678C124.648 3.65331 427.537 2.94922 460.639 1.93235C479.222 1.3619 490.514 0.843734 495.676 0.963418C500 1.05907 500.064 1.35211 496.322 2.1598C493.806 2.69826 496.645 3.01442 498.452 3.1601C501.227 3.40302 500.066 4.23392 496.581 4.89495C491.871 5.80078 483.741 5.78018 487.612 4.87474C488.451 4.67897 488.644 4.19044 485.676 4.28953C477.03 4.58666 415.924 6.61799 399.34 6.96769C222.28 10.7631 49.4759 8.13347 12.8896 9.05428C-0.0801424 9.40229 5.85575 7.98302 12.1792 7.68698Z" fill="#25B4F8"/>
</svg>
