<svg width="21" height="21" viewBox="0 0 21 21" fill="none" xmlns="http://www.w3.org/2000/svg">
<path d="M3.89944 18.0506C-0.00591368 14.1436 -0.00591368 7.80952 3.89944 3.90254C7.80479 -0.00443853 14.1362 -0.00443853 18.0416 3.90254C21.9462 7.80882 21.9469 14.1436 18.0416 18.0506C14.1362 21.9576 7.80408 21.9569 3.89944 18.0506ZM5.31365 16.6358C6.81394 18.1367 8.84877 18.9799 10.9705 18.9799C13.0922 18.9799 15.1271 18.1367 16.6274 16.6358C18.1276 15.1349 18.9705 13.0992 18.9705 10.9766C18.9705 8.85394 18.1276 6.81826 16.6274 5.31735C15.1271 3.81643 13.0922 2.97322 10.9705 2.97322C8.84877 2.97322 6.81394 3.81643 5.31365 5.31735C3.81336 6.81826 2.9705 8.85394 2.9705 10.9766C2.9705 13.0992 3.81336 15.1349 5.31365 16.6358ZM5.38436 9.9763H9.97066V5.38809C9.95863 4.72101 10.2917 4.38782 10.9705 4.38782C11.6493 4.38782 11.9824 4.72101 11.9704 5.38809V9.9763H16.5566C17.2227 9.9763 17.5558 10.3095 17.5565 10.9766C17.5558 11.6436 17.2227 11.9768 16.5566 11.9768H11.9704V16.565C11.9859 17.2314 11.6522 17.5653 10.9705 17.5653C10.2889 17.5653 9.9551 17.2314 9.97066 16.565V11.9768H5.38436C4.71827 11.9782 4.38451 11.6443 4.38451 10.9766C4.38451 10.3088 4.71827 9.97488 5.38436 9.9763Z" fill="#011632"/>
</svg>
