<svg width="70" height="70" viewBox="0 0 70 70" fill="none" xmlns="http://www.w3.org/2000/svg">
<circle cx="35" cy="35" r="35" fill="#25B4F8"/>
<g clip-path="url(#clip0_139_352)">
<rect width="48" height="48" transform="translate(11 11)" fill="#25B4F8"/>
<path d="M17.1922 40.4529L17.1922 40.4602L17.1943 40.4673C19.7314 48.8658 25.0361 54.8325 33.7749 58.5734C33.8191 58.5923 33.8827 58.621 33.9587 58.6553C33.9818 58.6657 34.006 58.6767 34.0312 58.688C34.1389 58.7365 34.2633 58.792 34.387 58.8444C34.5105 58.8967 34.6342 58.9463 34.7404 58.9829C34.8443 59.0186 34.9387 59.0446 35.0004 59.0446C35.0618 59.0446 35.1562 59.0186 35.2599 58.9829C35.366 58.9464 35.4897 58.8969 35.6132 58.8446C35.7369 58.7922 35.8612 58.7368 35.9689 58.6884C35.9944 58.6769 36.019 58.6658 36.0423 58.6553C36.1179 58.6212 36.1811 58.5927 36.2249 58.574C44.9587 54.8362 50.2733 48.863 52.8056 40.4676L52.8077 40.4605L52.8077 40.4532L52.8319 20.3837V20.3836C52.8319 20.2528 52.8018 20.144 52.7399 20.0554C52.6782 19.967 52.5879 19.9032 52.4751 19.8569C52.2521 19.7653 51.9293 19.7375 51.5275 19.7296C51.3232 19.7256 51.0969 19.7267 50.85 19.728C50.1192 19.7317 49.2078 19.7363 48.1504 19.6107C45.3264 19.2752 41.4684 18.0103 37.3414 13.3022C37.0043 12.9177 36.7217 12.5812 36.4797 12.2925L36.4481 12.2548C36.2203 11.983 36.0285 11.7542 35.8615 11.5693C35.6872 11.3763 35.5378 11.2287 35.4005 11.1293C35.2629 11.0296 35.1335 10.9754 34.9998 10.9754C34.8662 10.9754 34.7368 11.0296 34.5991 11.1293C34.4619 11.2287 34.3125 11.3763 34.1382 11.5693C33.9713 11.7542 33.7795 11.983 33.5517 12.2548L33.5201 12.2925C33.2782 12.5812 32.9955 12.9177 32.6585 13.3022L32.6961 13.3352L32.6585 13.3022C28.5313 18.0105 24.6734 19.2754 21.8495 19.6108C20.7922 19.7364 19.8808 19.7317 19.15 19.728C18.9031 19.7267 18.6769 19.7256 18.4725 19.7296C18.0708 19.7375 17.7481 19.7653 17.5251 19.8569C17.4123 19.9032 17.322 19.967 17.2602 20.0554C17.1983 20.144 17.1683 20.2528 17.1683 20.3836L17.1683 20.3837L17.1922 40.4529ZM18.3927 40.1993V20.9823L20.2397 20.9412C25.3554 20.8284 29.5948 18.6548 33.58 14.1095L33.5424 14.0765L33.58 14.1095L35.0001 12.4894L36.4202 14.1095L36.4578 14.0765L36.4202 14.1095C40.4053 18.6545 44.6448 20.8284 49.7599 20.9412L51.6069 20.9823V40.1996L51.5263 40.4668C49.1426 48.368 43.9819 53.9217 35.7432 57.4479L35.0004 57.766L34.2567 57.4476C25.8052 53.8295 20.8405 48.2876 18.3927 40.1993Z" fill="white" stroke="white" stroke-width="0.1"/>
<path d="M19.6939 40.0831L19.6939 40.0905L19.696 40.0975C21.9642 47.6157 26.8941 52.9075 34.7596 56.2743C34.8362 56.307 34.9183 56.3236 35.0004 56.3236H35.0007C35.0827 56.3236 35.1648 56.3071 35.241 56.2742C43.1065 52.908 48.036 47.616 50.3044 40.0978L50.3066 40.0908L50.3066 40.0834L50.3308 22.8298V22.8297C50.3308 22.4971 50.0643 22.2251 49.7317 22.2178C44.2365 22.0961 39.7023 19.7895 35.4604 14.9507C35.227 14.6841 34.7726 14.6841 34.5392 14.9507C30.2973 19.7892 25.7637 22.0958 20.2685 22.2175C19.9356 22.2249 19.6697 22.4965 19.6697 22.8294L19.6697 22.8295L19.6939 40.0831ZM49.1058 39.8295C46.9607 46.8561 42.347 51.835 35.0004 55.0434C27.6541 51.835 23.0401 46.8564 20.8947 39.8295V23.4195C26.2263 23.1465 30.8531 20.8001 35.0004 16.2714C39.1477 20.7998 43.7739 23.1462 49.1058 23.4195V39.8295Z" fill="white" stroke="white" stroke-width="0.1"/>
<path d="M31.382 45.9908L31.3821 45.9909C31.4796 46.0675 31.5945 46.1108 31.7114 46.1205V46.1228H31.7614C31.9453 46.1228 32.1403 46.0329 32.2606 45.8747C32.3826 45.7144 32.425 45.4882 32.3101 45.2245C31.6568 43.2977 32.0954 41.7453 32.8172 40.5945C33.5269 39.4629 34.5107 38.7194 35.0013 38.3945C35.4969 38.7204 36.4919 39.4688 37.2025 40.6124C37.9252 41.7756 38.3543 43.3482 37.6622 45.3066L37.6622 45.3066C37.4602 45.8793 38.1409 46.3685 38.6189 45.9914C42.8854 42.6278 42.916 38.2286 42.3714 34.6867C43.7641 33.6708 44.5839 32.0703 44.5839 30.3283C44.5839 25.5182 38.9281 23.3875 35.6665 26.215C35.3108 26.5233 35.0643 26.5895 34.8411 26.5357C34.7267 26.5081 34.6139 26.448 34.4914 26.3636C34.3881 26.2923 34.2805 26.2057 34.1609 26.1092C34.1385 26.0912 34.1156 26.0727 34.0923 26.054C33.7978 25.8177 33.4355 25.5395 32.925 25.3209C32.4143 25.1022 31.7575 24.9441 30.8738 24.9441C25.5448 24.9441 23.4467 31.6391 27.6295 34.6861C27.0849 38.2281 27.1158 42.6269 31.382 45.9908ZM41.382 33.8774L41.382 33.8774C41.1707 34.0085 41.0595 34.2538 41.1008 34.4988C41.7926 38.6291 41.2277 41.5002 39.2249 43.7544C39.3391 41.7589 38.4427 40.1026 37.4459 38.9395C36.9352 38.3437 36.3973 37.8761 35.9528 37.5572C35.7306 37.3977 35.5311 37.275 35.3696 37.1919C35.2889 37.1503 35.217 37.1183 35.1559 37.0966C35.096 37.0753 35.0427 37.0624 35.0006 37.0624H35.0003C34.9582 37.0624 34.9048 37.0753 34.8448 37.0966C34.7837 37.1183 34.7117 37.1503 34.631 37.1919C34.4694 37.2751 34.2699 37.3978 34.0476 37.5573C33.6031 37.8764 33.0652 38.344 32.5546 38.9399C31.5579 40.103 30.6618 41.7592 30.7759 43.7538C28.7729 41.4994 28.2083 38.6285 28.9001 34.4983C28.9411 34.2532 28.8299 34.0079 28.6189 33.8769L28.6189 33.8769C27.3809 33.1089 26.642 31.7825 26.642 30.3281C26.642 28.4132 27.7532 27.0877 29.1706 26.5044C30.5897 25.9204 32.3122 26.0819 33.5315 27.1402C34.0958 27.6299 34.5519 27.8195 34.9668 27.8183C35.3805 27.8172 35.7424 27.6262 36.1164 27.3812C36.219 27.3139 36.3229 27.2424 36.4295 27.169C37.1023 26.7059 37.8814 26.1694 39.1271 26.1694C43.5063 26.1694 44.8826 31.7069 41.382 33.8774Z" fill="white" stroke="white" stroke-width="0.1"/>
<path d="M32.5311 28.7532L32.5311 28.7532C32.6488 28.6174 32.7667 28.5452 32.8898 28.5269C33.0124 28.5087 33.1309 28.5454 33.247 28.6083C33.3627 28.6709 33.4814 28.7624 33.6049 28.8606C33.6204 28.8729 33.636 28.8853 33.6517 28.8978C33.7623 28.986 33.8782 29.0784 34.0041 29.1638C34.2906 29.3581 34.623 29.5121 35.0393 29.4845C35.4563 29.4568 35.9663 29.2462 36.6055 28.6919L36.6055 28.6919C36.7558 28.5616 36.9211 28.519 37.075 28.54C37.2275 28.5609 37.3652 28.6438 37.4641 28.7579C37.5631 28.8721 37.6256 29.02 37.6246 29.174C37.6236 29.3293 37.5579 29.4868 37.4076 29.6172L37.4076 29.6172C36.5873 30.3281 35.795 30.7326 35.0005 30.7327L32.5311 28.7532ZM32.5311 28.7532C32.4321 28.8674 32.3826 28.9877 32.3772 29.111C32.3719 29.2335 32.4106 29.354 32.4791 29.4689C32.6153 29.6972 32.8748 29.9128 33.1769 30.0978C33.4802 30.2836 33.8318 30.442 34.1586 30.554C34.4842 30.6655 34.7897 30.7327 35.0003 30.7327L32.5311 28.7532Z" fill="white" stroke="white" stroke-width="0.1"/>
</g>
<defs>
<clipPath id="clip0_139_352">
<rect width="48" height="48" fill="white" transform="translate(11 11)"/>
</clipPath>
</defs>
</svg>
