<svg width="257" height="8" viewBox="0 0 257 8" fill="none" xmlns="http://www.w3.org/2000/svg">
<path fill-rule="evenodd" clip-rule="evenodd" d="M5.90786 5.82439C11.3549 5.38764 25.6698 5.3658 64.5296 5.32212C125.21 5.25661 173.37 4.77619 186.755 4.07739C187.818 4.01188 102.758 3.53146 94.0231 3.88086C80.4056 4.44863 15.3736 3.96821 2.28757 3.31308C-1.43233 3.13838 -0.0373537 2.52693 2.38722 2.39591C6.17353 2.17753 16.3369 2.19937 44.203 2.24305C63.7989 2.26489 219.702 1.76262 236.741 0.867284C246.306 0.365023 252.119 -0.0935626 254.776 0.0156245C257.001 0.102974 257.034 0.365023 255.108 1.08566C253.813 1.56608 255.274 1.84997 256.204 1.981C257.632 2.19937 257.034 2.94184 255.241 3.53146C252.816 4.33944 248.631 4.3176 250.624 3.50962C251.056 3.33492 251.156 2.89817 249.628 2.98552C245.177 3.24757 213.724 5.03824 205.188 5.34396C114.051 8.66326 25.1052 6.2393 6.27318 7.04729C-0.402716 7.35301 2.65296 6.08644 5.90786 5.82439Z" fill="#011632"/>
</svg>
